HIERARCHY
ROOT hip
{
  OFFSET 0 0 0
  CHANNELS 6 Xposition Yposition Zposition Zrotation Yrotation Xrotation
  JOINT abdomen
  {
    OFFSET 0 20.6881 -0.73152
    CHANNELS 3 Zrotation Xrotation Yrotation
    JOINT chest
    {
      OFFSET 0 11.7043 -0.48768
      CHANNELS 3 Zrotation Xrotation Yrotation
      JOINT neck
      {
        OFFSET 0 22.1894 -2.19456
        CHANNELS 3 Zrotation Xrotation Yrotation
        JOINT head
        {
          OFFSET -0.24384 7.07133 1.2192
          CHANNELS 3 Zrotation Xrotation Yrotation
          JOINT leftEye
          {
            OFFSET 4.14528 8.04674 8.04672
            CHANNELS 3 Zrotation Xrotation Yrotation
            End Site
            {
              OFFSET 1 0 0
            }
          }
          JOINT rightEye
          {
            OFFSET -3.6576 8.04674 8.04672
            CHANNELS 3 Zrotation Xrotation Yrotation
            End Site
            {
              OFFSET 1 0 0
            }
          }
        }
      }
      JOINT rCollar
      {
        OFFSET -2.68224 19.2634 -4.8768
        CHANNELS 3 Zrotation Xrotation Yrotation
        JOINT rShldr
        {
          OFFSET -8.77824 -1.95073 1.46304
          CHANNELS 3 Zrotation Xrotation Yrotation
          JOINT rForeArm
          {
            OFFSET -28.1742 -1.7115 0.48768
            CHANNELS 3 Zrotation Xrotation Yrotation
            JOINT rHand
            {
              OFFSET -22.5879 0.773209 7.07136
              CHANNELS 3 Zrotation Xrotation Yrotation
              JOINT rThumb1
              {
                OFFSET -1.2192 -0.487915 3.41376
                CHANNELS 3 Zrotation Xrotation Yrotation
                JOINT rThumb2
                {
                  OFFSET -3.37035 -0.52449 3.41376
                  CHANNELS 3 Zrotation Xrotation Yrotation
                  End Site
                  {
                    OFFSET -1.78271 -1.18214 1.43049
                  }
                }
              }
              JOINT rIndex1
              {
                OFFSET -7.75947 0.938293 5.60832
                CHANNELS 3 Zrotation Xrotation Yrotation
                JOINT rIndex2
                {
                  OFFSET -2.54057 -0.884171 1.56538
                  CHANNELS 3 Zrotation Xrotation Yrotation
                  End Site
                  {
                    OFFSET -1.62519 -0.234802 1.16502
                  }
                }
              }
              JOINT rMid1
              {
                OFFSET -8.24714 1.18213 3.41376
                CHANNELS 3 Zrotation Xrotation Yrotation
                JOINT rMid2
                {
                  OFFSET -3.10165 -0.590103 1.0647
                  CHANNELS 3 Zrotation Xrotation Yrotation
                  End Site
                  {
                    OFFSET -2.48547 -0.328903 0.83742
                  }
                }
              }
              JOINT rRing1
              {
                OFFSET -8.82822 0.546677 1.51678
                CHANNELS 3 Zrotation Xrotation Yrotation
                JOINT rRing2
                {
                  OFFSET -2.60934 -0.819778 -0.0198488
                  CHANNELS 3 Zrotation Xrotation Yrotation
                  End Site
                  {
                    OFFSET -2.33842 -0.294052 0.168128
                  }
                }
              }
              JOINT rPinky1
              {
                OFFSET -8.27202 -0.0477905 -0.4584
                CHANNELS 3 Zrotation Xrotation Yrotation
                JOINT rPinky2
                {
                  OFFSET -1.82734 -0.647385 -0.700984
                  CHANNELS 3 Zrotation Xrotation Yrotation
                  End Site
                  {
                    OFFSET -1.69225 -0.51767 -0.607171
                  }
                }
              }
            }
          }
        }
      }
      JOINT lCollar
      {
        OFFSET 2.68224 19.2634 -4.8768
        CHANNELS 3 Zrotation Xrotation Yrotation
        JOINT lShldr
        {
          OFFSET 8.77824 -1.95073 1.46304
          CHANNELS 3 Zrotation Xrotation Yrotation
          JOINT lForeArm
          {
            OFFSET 28.1742 -1.7115 0.48768
            CHANNELS 3 Zrotation Xrotation Yrotation
            JOINT lHand
            {
              OFFSET 22.5879 0.773209 7.07136
              CHANNELS 3 Zrotation Xrotation Yrotation
              JOINT lThumb1
              {
                OFFSET 1.2192 -0.487915 3.41376
                CHANNELS 3 Zrotation Xrotation Yrotation
                JOINT lThumb2
                {
                  OFFSET 3.37035 -0.52449 3.41376
                  CHANNELS 3 Zrotation Xrotation Yrotation
                  End Site
                  {
                    OFFSET 1.78271 -1.18214 1.43049
                  }
                }
              }
              JOINT lIndex1
              {
                OFFSET 7.75947 0.938293 5.60832
                CHANNELS 3 Zrotation Xrotation Yrotation
                JOINT lIndex2
                {
                  OFFSET 2.54057 -0.884171 1.56538
                  CHANNELS 3 Zrotation Xrotation Yrotation
                  End Site
                  {
                    OFFSET 1.62519 -0.234802 1.16502
                  }
                }
              }
              JOINT lMid1
              {
                OFFSET 8.24714 1.18213 3.41376
                CHANNELS 3 Zrotation Xrotation Yrotation
                JOINT lMid2
                {
                  OFFSET 3.10165 -0.590103 1.0647
                  CHANNELS 3 Zrotation Xrotation Yrotation
                  End Site
                  {
                    OFFSET 2.48547 -0.328903 0.83742
                  }
                }
              }
              JOINT lRing1
              {
                OFFSET 8.82822 0.546677 1.51678
                CHANNELS 3 Zrotation Xrotation Yrotation
                JOINT lRing2
                {
                  OFFSET 2.60934 -0.819778 -0.0198488
                  CHANNELS 3 Zrotation Xrotation Yrotation
                  End Site
                  {
                    OFFSET 2.33842 -0.294052 0.168128
                  }
                }
              }
              JOINT lPinky1
              {
                OFFSET 8.27202 -0.0477905 -0.4584
                CHANNELS 3 Zrotation Xrotation Yrotation
                JOINT lPinky2
                {
                  OFFSET 1.82734 -0.647385 -0.700984
                  CHANNELS 3 Zrotation Xrotation Yrotation
                  End Site
                  {
                    OFFSET 1.69225 -0.51767 -0.607171
                  }
                }
              }
            }
          }
        }
      }
    }
  }
  JOINT rButtock
  {
    OFFSET -8.77824 4.35084 1.2192
    CHANNELS 3 Zrotation Xrotation Yrotation
    JOINT rThigh
    {
      OFFSET 0 -1.70687 -2.19456
      CHANNELS 3 Zrotation Xrotation Yrotation
      JOINT rShin
      {
        OFFSET 0 -36.8199 0.73152
        CHANNELS 3 Zrotation Xrotation Yrotation
        JOINT rFoot
        {
          OFFSET 0.73152 -45.1104 -5.12064
          CHANNELS 3 Zrotation Xrotation Yrotation
          End Site
          {
            OFFSET -1.1221 -3.69964 12.103
          }
        }
      }
    }
  }
  JOINT lButtock
  {
    OFFSET 8.77824 4.35084 1.2192
    CHANNELS 3 Zrotation Xrotation Yrotation
    JOINT lThigh
    {
      OFFSET 0 -1.70687 -2.19456
      CHANNELS 3 Zrotation Xrotation Yrotation
      JOINT lShin
      {
        OFFSET 0 -36.8199 0.73152
        CHANNELS 3 Zrotation Xrotation Yrotation
        JOINT lFoot
        {
          OFFSET -0.73152 -45.1104 -5.12064
          CHANNELS 3 Zrotation Xrotation Yrotation
          End Site
          {
            OFFSET 1.1221 -3.69964 12.103
          }
        }
      }
    }
  }
}
MOTION
Frames:	5
Frame Time:	0.00833333
-2.2468 52.1578 -71.24340000000001 3.429579 71.357962 6.751313 -1.995743 19.119596 -3.701791 -2.269725 -11.41409 21.612618 -10.675581 28.850352 -106.699818 34.956869 27.377147 134.248261 -3.926473 -0.147659 4.30562 12.468436 -3.191586 -28.614138 -156.599321 -65.187279 176.448479 105.877033 57.766672 -108.495521 -175.077009 -41.356171 42.669373 158.912082 -35.590948 138.403921 -179.412008 -8.276022 83.794204 -40.627506 -43.751561 -8.653903 34.336077 -46.987153 -1.883692 -136.034207 18.116203 111.116872 134.000348 -77.330908 95.122611 -163.473689 0.741118 127.946819 -143.391448 1.87021 -178.367551 -158.094111 -21.171716 -178.917571 -121.481252 -5.098402 -128.635741 -133.911654 39.761371 -150.610121 -4.329424 -60.69933 11.072798 126.617362 -12.787935 148.160205 -175.641387 -21.913551 78.802993 14.499314 -1.872776 0.872874 162.846457 1.983696 -92.896688 13.919681 -49.720694 4.019211 -6.026865 -17.888994 6.284532 160.288752 -28.312516 -121.455094 146.923687 29.097372 -139.347689 11.231471 40.121776 -9.692573 0.448275 32.495631 -3.86601 111.25907 64.165174 -118.673222 75.645663 -57.50635 82.305677 146.239639 -17.20862 136.588012 161.477367 77.279974 6.99061 145.690853 24.931318 5.604916 -110.49181 82.211302 29.5638 45.877953 24.902082 57.510452 -4.002054 -1.848338 -6.074038 68.902085 -49.780529 -133.250803 -73.868795 -85.462351 177.398881 -173.856199 -22.517887 70.399566
-2.0151 51.719800000000006 -71.6891 3.230835 70.916147 6.657973 -2.107719 19.184834 -1.941907 -2.600032 -11.68038 20.216384 10.162033 25.321995 107.084454 -33.928437 13.043025 -69.516155 -4.084676 -0.161213 4.518412 12.209688 -3.381599 -30.858114 -147.331872 30.143001 153.062382 131.796367 -34.203396 148.043613 -179.423555 -2.32779 41.041331 161.329462 -30.961501 140.334675 -171.679009 -1.629273 83.225045 31.001584 -71.706758 37.687656 8.213006 -6.663908 0.456652 7.849353 12.569547 0.444938 -11.614276 33.655897 16.206818 -0.893287 -37.618086 -16.784632 0.609059 20.896271 6.629601 14.010316 -29.045962 -6.65692 121.33468 81.037847 -66.086763 -3.757577 3.622812 -16.841765 141.514517 41.360413 -144.625298 73.165809 36.779145 -52.535933 22.520899 -32.643865 155.486514 174.69878 -20.090488 -147.769072 -179.844823 -17.301245 -93.605874 144.371126 16.240217 -87.675103 -28.849797 -56.947487 5.163733 129.97249 40.157508 -107.365782 162.423439 -28.740538 -151.795193 152.041976 14.489102 -140.270361 0.988345 9.502124 2.632821 6.10572 45.504709 -23.757557 -9.740903 5.917965 -8.016419 -68.716052 75.406329 35.243481 1.677576 -0.718711 9.400873 -61.529215 -32.214178 166.523983 -104.055316 -61.100698 -14.80353 38.265701 -78.727205 117.538621 0.033721 -2.171462 -3.190198 64.378348 -50.169799 -3.25133 -91.927 32.544691 -28.392315 -105.572725 78.993244 -162.150894
-1.7923000000000002 51.2389 -72.0651 3.029839 70.453374 6.564426 -0.734543 18.783887 -35.843859 3.162194 -11.852703 54.789067 -11.174199 22.941329 -70.37477 37.086533 6.451236 104.946609 -4.224559 -0.170718 4.626133 12.079342 -3.537917 -32.544731 -67.613735 69.276869 71.215528 -5.705254 7.43245 55.920091 -43.233577 -80.175246 56.911408 -6.827474 30.787977 1.423001 16.240753 -20.511353 7.544104 -106.208512 14.594129 110.5734 24.377979 -33.130742 -2.602186 12.762106 7.827465 -3.893904 -141.555863 20.01586 132.894203 -147.062132 -0.030305 144.904662 -143.76247 -1.784682 -179.51126 -160.434605 -16.543238 176.704452 -112.202349 -19.419836 -119.718428 4.426723 -31.448928 -10.479132 -1.272412 -13.125244 1.2927 116.266433 -7.861185 -178.305491 168.566577 17.289795 78.097408 9.552559 -18.519213 3.502907 178.536925 -15.088191 -94.001633 158.511269 3.36833 -99.387755 111.657223 36.955336 -92.275883 166.871443 -17.944535 -107.325373 14.113772 42.54031 -8.775333 168.27296 -3.032961 -143.621912 32.951733 -59.887935 45.715913 -14.450338 62.134838 -9.806377 0.071548 -21.578344 3.953744 146.689036 -4.171184 133.397592 14.582869 2.627892 19.782934 -77.497115 -22.269716 -170.533267 -97.514421 -20.74188 -164.261805 -171.144342 -13.111993 132.624624 -146.040083 76.742476 -23.759391 -157.122565 7.5159 81.316557 91.32401 -3.049463 -5.678437 -134.558596 60.299675 34.169653
-1.577 50.7185 -72.375 2.823543 69.972943 6.470952 -2.202214 19.253313 0.844693 -3.264092 -12.14758 18.1169 9.420936 19.387954 71.389446 -28.402733 -6.704799 -38.087871 -4.381549 -0.175977 4.597647 12.069345 -3.650659 -33.551532 -1.727403 14.705407 2.177372 -119.196081 -3.681879 157.68991 -176.416726 -20.439441 -77.727757 -10.082721 39.394489 2.748505 -170.688495 -0.091228 82.821901 163.541238 -12.573772 95.627226 -148.752311 -17.844565 117.854172 -7.057175 24.390318 -2.019495 12.802632 -16.288458 1.305073 -166.460021 26.447333 139.254688 -144.112507 1.348101 178.383901 -4.449262 52.555543 11.047605 -2.249883 -20.703276 -19.43094 -7.483507 62.737023 34.516886 160.368115 -30.492232 -165.137006 -149.683751 19.384218 163.530565 29.249299 -41.010621 -86.376115 3.853847 -39.05188 5.280697 -16.93304 -22.000588 3.852745 7.169202 6.906454 -8.478377 65.283411 45.657558 -49.800355 6.321909 23.587176 -8.760085 -3.176627 -5.619474 7.429825 160.898169 10.562921 -135.495908 2.152399 1.159606 3.486387 150.885451 2.182273 -165.636698 137.016578 10.355102 145.870401 144.090495 14.424572 148.793489 -22.539077 -0.821344 -9.835719 -27.895327 -44.087604 -72.587845 -107.371114 53.91002 -110.033277 10.684313 43.267977 -158.1766 176.853403 78.151866 6.686969 -145.375024 3.948298 -75.633215 -95.526305 30.563882 -158.520484 -32.464983 -8.520769 -119.680649
-1.3675 50.1628 -72.62349999999999 2.609456 69.47953 6.376825 -1.676762 19.218476 -10.08637 -1.426983 -12.868413 29.483396 -8.505115 18.454791 -42.009033 30.41788 -9.028406 81.592659 -4.568671 -0.176073 4.411742 12.177412 -3.71681 -33.837273 -148.344382 27.508294 155.053942 -175.688393 46.709937 135.464462 101.897228 -75.34893 -40.928469 165.962123 -19.638545 143.99192 -168.38758 2.050082 82.353517 -135.709127 14.523797 52.2851 48.28268 -58.51474 6.984896 -23.571563 46.19134 17.160518 -175.438998 -52.231176 137.993875 -165.194435 -12.959419 131.092636 -143.823497 10.834371 174.267993 -158.699255 15.120183 167.572596 36.026475 49.243539 -0.476049 8.744198 49.395348 2.440117 159.03966 -18.645715 -162.918687 -142.74409 49.014479 170.53066 2.527611 5.902948 -107.800777 9.52091 -17.745508 3.176112 162.83616 4.05427 -93.055628 1.449866 -59.868267 1.42092 145.593577 0.803109 -119.762772 167.776987 -13.196997 -113.606717 163.549985 -33.4931 -153.178212 19.848415 54.386863 -21.738709 145.432786 -17.948613 170.122951 147.877519 -33.550433 167.183426 144.681098 70.134315 161.758773 159.771534 61.870334 146.38334 -82.601494 36.3385 -50.614564 77.887887 -21.259376 -14.862591 -108.706201 59.274294 -126.501224 -84.056818 -20.78914 -149.051492 -6.16489 -1.646547 -9.605607 78.338219 -45.531716 173.904614 95.20002 -21.364282 166.12763 178.883272 62.17532 -93.822665
